<svg width="1539" height="717" viewBox="0 0 1539 717" fill="none" xmlns="http://www.w3.org/2000/svg">
<path d="M1305.1 500.466L1318.64 477L1332.19 500.466H1305.1Z" stroke="white"/>
<path d="M1080.64 585L1095.06 609.966H1066.23L1080.64 585Z" fill="white"/>
<path d="M1260.91 188.75L1318.5 89L1376.09 188.75H1260.91Z" stroke="white"/>
<circle cx="655.5" cy="155.5" r="37.5" fill="white"/>
<circle cx="1025.5" cy="577.5" r="139" stroke="white"/>
<rect x="1365" y="618" width="20.8046" height="20.8046" fill="white"/>
<rect x="990.5" y="99.5" width="70" height="70" stroke="white"/>
<circle cx="154.5" cy="274.5" r="13" stroke="white"/>
<circle cx="391.506" cy="68.3219" r="8.32185" fill="white"/>
<circle cx="119.08" cy="106.08" r="2.08046" fill="white"/>
<circle cx="6.24139" cy="424.241" r="6.24139" fill="white"/>
<circle cx="1423" cy="444" r="8" fill="white"/>
<circle cx="745" cy="503" r="19" fill="#FCFCFC"/>
<circle cx="1165" cy="404" r="17" fill="white"/>
<circle cx="1539" cy="24" r="24" fill="white"/>
</svg>
